<svg xmlns="http://www.w3.org/2000/svg" height="800" width="1200" viewBox="-38.6139 -105.81925 334.6538 634.9155"><defs><clipPath id="a" clipPathUnits="userSpaceOnUse"><path d="M0 841.89h1190.55V0H0z"/></clipPath></defs><g clip-path="url(#a)" transform="matrix(1.33333 0 0 -1.33333 -683.774 772.493)" fill="#0057a5"><path d="M650.221 267.187c-7.547.053-13.639 6.215-13.639 13.735 0 7.574 6.092 13.789 13.64 13.789 7.547 0 13.741-6.164 13.741-13.79 0-7.571-6.194-13.734-13.742-13.734m0 32.798c-10.462 0-18.999-8.564-18.999-19.063 0-10.496 8.537-19.01 19-19.01 10.462 0 18.946 8.514 18.946 19.01 0 10.499-8.484 19.063-18.947 19.063m-30.633-25.367l-26.338 24.846v-37.03h5.256v24.597l26.393-24.596v37.029h-5.31zm-50.998-6.908h-7.964v26.478h7.965c7.287 0 13.168-5.954 13.168-13.266 0-7.259-5.881-13.213-13.168-13.213m0 31.754h-13.223v-37.029h13.223c10.462 0 18.373 8.304 18.426 18.488 0 10.184-8.226 18.541-18.426 18.541m125.29-32.251c-7.282 0-13.679 6.158-13.679 13.725 0 7.62 6.45 13.778 13.68 13.778 3.64 0 6.865-1.358 9.257-3.758l2.662 4.646c-3.178 2.83-7.334 4.382-11.92 4.382-10.61 0-18.984-8.558-18.984-19.048 0-10.489 8.53-18.996 18.933-18.996 4.59 0 8.835 1.641 12.07 4.413l-2.657 4.615c-2.393-2.4-5.774-3.757-9.362-3.757M531.308 299.53l-18.478-37.095h5.83l12.649 26.041 6.304-12.979h-10.947l-.12-.258c.016-.001.076-.008.17-.022 7.21-.513 13.35-4.878 16.38-11.05l.844-1.732h5.795zm166.404 18.326h5.303v37.025h-5.303zm2.76 46.17c-.766.446-1.15 1.274-1.15 2.359 0 1.212.831 2.424 2.17 2.424.954 0 1.593-.448 1.785-1.405l2.297 1.212c-.893 1.85-2.232 2.808-4.02 2.808-2.74 0-4.975-2.17-4.975-5.167 0-.32.192-1.02.576-2.232h-2.554v-2.935h11.035v2.935zM512.851 333.68c-.001-.073-.007-.143-.007-.215 0-8.58 7.48-15.625 16.082-15.625h25.688v37.03h-5.279v-31.82h-20.51c-5.751 0-10.84 4.644-10.84 10.415 0 .072.005.142.006.214zm150.446-10.566v-5.258h28.237v10.846c0 8.582-6.766 15.073-15.065 15.116-2.269 0-4.426-.505-6.364-1.41l2.64-4.685a9.498 9.498 0 003.721.756c5.215 0 9.494-4.254 9.494-9.525v-5.837z"/><path d="M528.705 337.08h11.035v2.936h-5.164c-.766.447-1.15 1.274-1.15 2.359 0 1.212.83 2.424 2.17 2.424.954 0 1.593-.446 1.785-1.404l2.297 1.212c-.893 1.85-2.232 2.808-4.02 2.808-2.74 0-4.975-2.17-4.975-5.167 0-.32.192-1.02.576-2.232h-2.554zm128.361 13.74h-5.271v-5.271h5.271zm-80.21-27.757h-4.268c-3.905 0-7.057 3.19-7.057 7.109 0 3.888 3.152 7.08 7.057 7.08h4.268zm-2.36-13.856l.012-.021 3.535-3.207c2.294 2.603 3.712 6.033 3.712 9.757v2.092h67.371c5.255 0 7.884 2.827 7.884 8.526v16.16h-5.257v-14.173c0-1.696-.14-3.128-.375-3.694-.517-1.036-1.595-1.553-3.333-1.553h-65.892v19.42h-9.214c-6.974 0-12.248-5.536-12.284-12.326 0-6.789 5.484-12.36 12.284-12.36h3.979v-2.477c0-2.104-.917-4.405-2.422-6.144m99.054 111.517c-2.927-12.268-8.919-22.941-17.46-31.547h46.888c8.891 48.587-23.116 100.559-75.507 111.767 10.696-2.938 56.65-24.513 46.078-80.22"/><path d="M512.83 579.37V389.178l20.27-.008c12.302.03 15.147-.25 21.87.804 28.998 4.228 55.517 27.83 58.381 48.69 4.288 24.697-9.149 46.338-34.946 51.71-.458.097-.96.24-1.494.425-.918-.012-13.493-.13-23.184 2.459-.12-.103-5.565-4.411-3.33-12.674 0 0-12.92 13.482-4.71 31.603 0 0 3.978 8.545 17.483 17.286l.313.37c3.614 4.288 12.278 11.85 24.851 17.823 6.416 2.885 17.43 7.023 29.763 8.08 56.25 5.232 84.881-37.81 84.881-37.81v61.434z"/><path d="M650.956 534.39c-27.223 3.632-50.114-3.41-68.168-15.988 0-.009 5.304 3.043 13.482 5.97 1.204-5.233 5.603-9.64 11.542-10.877 7.95-1.654 15.64 2.996 17.176 10.386a12.812 12.812 0 01-.16 5.898c51.993 1.58 78.143-38.077 78.143-38.077l.007 16.595v.514c-7.927 8.014-27.613 22.87-52.022 25.58"/></g></svg>