<svg xmlns="http://www.w3.org/2000/svg" height="800" width="1200" viewBox="-32.93025 -34.65 285.3955 207.9"><path d="M90.359 1.161C92.471.013 95.406-.672 97.448.998c3.426 3.147 5.661 7.297 8.022 11.24.658 1.04 1.029 2.311 2.04 3.09-.75.527-1.552.974-2.32 1.47-1.75-1.854-3.384-3.807-5.047-5.734-2.69-3.093-5.821-5.756-8.957-8.382-.402-.407-1.143-.85-.827-1.52zm-14.613 2.48c2.864-2.213 7.178-2.328 10.182-.309 2.416 1.558 4.62 3.411 6.889 5.166 2.578 1.893 4.989 4 7.319 6.186 1.292.977 2.26 2.308 3.557 3.276-.742.562-1.482 1.123-2.215 1.692-.02-.109-.054-.32-.073-.427-4.857-3.093-9.731-6.188-14.868-8.812-2.785-1.546-5.685-2.875-8.579-4.207-.849-.432-1.761-.753-2.556-1.28-.451-.374-.002-.995.344-1.285zM60.631 9.02c1.462-1.573 3.627-2.28 5.701-2.587 2.171-.309 4.139.78 6.109 1.49 8.61 3.461 17.136 7.212 25.148 11.915.683.353 1.348.76 1.871 1.33-.732.63-1.414 1.316-2.158 1.935-2.487-1.68-5.257-2.907-8.009-4.086-7.948-3.479-16.317-5.905-24.77-7.82-1.212-.358-2.491-.479-3.687-.874-.574-.15-.591-.96-.205-1.304z" fill="#4091CF"/><path d="M117.225 9.395c6.664-3.683 13.705-6.709 21-8.915 1.428-.227 2.889-.023 4.328-.049 2.746.25 5.525.172 8.238.716-3.764.756-7.52 1.586-11.178 2.755-10.715 3.428-20.961 8.288-30.47 14.287-3.887 2.472-7.741 5.02-11.339 7.898-.841-.315-1.628-.747-2.41-1.186a15.983 15.983 0 011.908-1.798c.744-.619 1.426-1.306 2.158-1.936.661-.52 1.358-.99 2.017-1.515.732-.57 1.473-1.13 2.215-1.692.505-.378.975-.805 1.498-1.163.769-.496 1.571-.942 2.32-1.469 3.099-2.194 6.385-4.112 9.715-5.933z" fill="#0F9146"/><path d="M154.498 2.59c1.066-.178 2.139-.673 3.232-.39 2.838.527 5.717.925 8.492 1.735-10.423 1.926-20.786 4.325-30.833 7.733-9.125 2.993-18.025 6.738-26.407 11.43-2.556 1.56-5.209 2.978-7.582 4.822a12.136 12.136 0 01-2.034-1.26c.658-.69 1.437-1.243 2.224-1.775 5.919-4.032 12.225-7.48 18.725-10.484 10.927-5.147 22.456-8.953 34.183-11.81z" fill="#2C9D48"/><path d="M167.279 6.376c1.635-.292 3.256-.713 4.912-.859 1.684.355 3.311.954 4.949 1.475 1.914.725 3.883 1.332 5.719 2.248-12.379 1.283-24.65 3.5-36.758 6.363-12.818 3.17-25.482 7.16-37.476 12.712-1.173.604-2.415 1.074-3.534 1.778-.684-.43-1.352-.879-2.033-1.309 1.693-1.449 3.724-2.414 5.654-3.508 7.608-3.992 15.622-7.165 23.739-9.968 11.397-3.73 23.033-6.75 34.828-8.932z" fill="#54AA47"/><path d="M142.955 19.211c14.689-3.528 29.668-5.77 44.699-7.179.602-.083 1.139.264 1.652.524 3.537 1.904 7.021 3.96 10.193 6.44.416.315.783.696 1.111 1.103-1.678.198-3.334-.249-5.01-.212-1.775.034-3.533-.246-5.307-.249-5.145-.052-10.297-.106-15.441.07-2.07.265-4.17.06-6.24.331-8.854.573-17.682 1.644-26.404 3.285-2.211.481-4.447.836-6.656 1.326-5.588 1.28-11.166 2.623-16.654 4.284-3.662 1.037-7.219 2.414-10.848 3.554-.448-.705-1.116-1.2-1.831-1.606.856.14 1.57-.504 2.347-.762 1.681-.622 3.283-1.438 4.97-2.042 2.637-.908 5.203-2.004 7.855-2.855 7.109-2.275 14.271-4.414 21.564-6.012z" fill="#6FB444"/><path d="M52.329 13.673c1.478-.252 2.97.068 4.457-.032 1.241.003 2.435.401 3.646.63 4.621.836 9.164 2.028 13.701 3.225 2.896.845 5.822 1.598 8.65 2.655 4.307 1.297 8.461 3.032 12.612 4.75.782.438 1.568.871 2.41 1.186.51.215 1.033.404 1.563.573.637.481 1.313.914 2.034 1.26.552.286 1.123.538 1.659.865.681.43 1.349.88 2.033 1.31.384.248.745.532 1.128.787.715.407 1.382.902 1.831 1.606-.569.284-1.246.67-1.876.324-1.565-.793-3.044-1.758-4.681-2.403-4.659-2.27-9.675-3.65-14.663-4.985-7.907-1.936-15.986-3.099-24.089-3.814-1.783.003-3.541-.35-5.325-.287-3.605-.318-7.232-.232-10.849-.278-1.281-.045-2.713.275-3.798-.598.019-.67-.13-1.429.337-1.987 1.573-2.185 3.91-3.895 6.526-4.559a21.191 21.191 0 002.694-.228z" fill="#4091CE"/><g fill="#2E398E"><path d="M194.092 28.458c3.074.075 6.156.003 9.234.035.098 10.085.01 20.177.043 30.27-.072 4.085-.701 8.52-3.541 11.674-2.629 2.93-6.717 3.854-10.5 4.026-3.91.014-7.82-.015-11.73.014-1.771 2.767-4.59 4.785-7.715 5.765-4.17 1.354-8.791 1.27-12.912-.218-2.852-1.039-5.459-2.924-7.043-5.538-5.484-.186-11.1.487-16.453-1.028-.061 2.452.223 4.946-.379 7.352-.734 3.308-2.764 6.303-5.564 8.22-3.814 2.642-8.627 3.53-13.199 3.226-3.607-.343-7.403-.898-10.476-2.946-.161-2.586-.036-5.194-.058-7.786.582-.12 1.163-.243 1.749-.347 1.567 2.984 4.808 4.736 8.076 5.157 1.834.161 3.73.132 5.486-.47 2.049-.606 3.631-2.356 4.301-4.347.49-1.432.723-2.949.729-4.462.023-5.873-.029-11.743.027-17.614 3.096-.037 6.191-.02 9.289-.012.031 2.022.006 4.101.695 6.031.303.9.961 1.684 1.848 2.05 1.457.621 3.07.647 4.627.722 2.455-.018 4.912.031 7.365-.032-.182-3.439.732-7.027 2.982-9.699 2.633-3.09 6.627-4.839 10.631-5.194 2.232-.035 4.512-.187 6.697.363 3.639.851 7.162 2.855 9.195 6.063 1.627 2.494 2.205 5.533 2.035 8.474 2.543.057 5.088.003 7.631.03 1.232-.004 2.512-.024 3.678-.477.887-.32 1.406-1.15 2.051-1.78.789-.637 1.234-1.573 1.332-2.572.529-4.737.35-9.513.377-14.272.006-4.734-.012-9.464.008-14.198.002-1.386-.158-2.766-.053-4.149.021-.802.277-1.762-.463-2.33m-33.588 30.666c-1.738.65-2.859 2.342-3.322 4.075a16.215 16.215 0 00-.088 7.741c.412 1.652 1.275 3.367 2.898 4.112 1.809.848 4.018.836 5.838.022 1.674-.738 2.65-2.479 3.01-4.204.584-2.806.586-5.818-.438-8.527-.689-1.83-2.367-3.399-4.385-3.505-1.171-.044-2.394-.135-3.513.286zm48.709-30.639c3.076-.003 6.154.011 9.232-.003-.008 15.3-.012 30.604.002 45.904-3.082.032-6.166.043-9.246-.003.043-15.297.016-30.597.012-45.898z"/><path d="M106.652 40.82c3.091-.787 6.117-1.82 9.229-2.528-.01 12.033-.016 24.066.002 36.1-3.105.025-6.213.045-9.32-.012.01-10.18.003-20.36.005-30.54.01-1.007-.054-2.018.084-3.02zm-97.204.873c.655-.77 1.271-1.583 2.028-2.262.019 6.681 0 13.365.009 20.048.036 1.781.12 3.583.608 5.306.332 1.177 1.109 2.291 2.267 2.778 1.256.536 2.647.59 3.996.66 6.444.011 12.891.002 19.334.008-1.581-8.007-3.275-15.99-4.805-24.006 4.079-.002 8.154.003 12.232 0 1.596.026 3.228.227 4.692.9 2.033.901 3.656 2.571 4.681 4.523 1.324 2.366 1.784 5.066 2.38 7.678.605 2.692 1.223 5.383 1.815 8.081.2.8.352 1.638.796 2.345.456.47 1.191.39 1.792.47 3.164.014 6.333.01 9.499 0-1.246-1.4-2.472-2.915-2.916-4.779-.661-2.724-.396-5.736 1.022-8.188 1.297-2.256 3.424-3.952 5.769-5.04 3.926-1.873 8.355-2.469 12.67-2.37 3.255.047 6.484.695 9.54 1.803.076 2.091.048 4.184.01 6.274-.457.02-.906.06-1.36.046-.816-.484-1.468-1.22-2.339-1.626-1.891-.905-4-1.292-6.089-1.283-2.646-.054-5.496.046-7.785 1.541-1.838 1.208-2.513 3.514-2.504 5.61-.045 2.08.442 4.361 2.036 5.825 1.749 1.65 4.259 2.08 6.572 2.188 4.07.012 8.139.01 12.208.003a461.026 461.026 0 000 6.223c-12.271.04-24.542.003-36.812.018-2.224-.02-4.719-.227-6.37-1.902-1.502-1.672-2.003-3.939-2.526-6.062a642.897 642.897 0 01-2.257-9.89c-.338-1.45-.641-2.917-1.218-4.294-.34-.848-1.027-1.64-1.963-1.81-1.136-.172-2.292-.118-3.435-.103 1.63 7.605 3.222 15.22 4.718 22.852-.19-.813-.463-1.615-.931-2.31.038.847.27 1.683.253 2.536-.253.498-.871.314-1.317.317-1.493-.15-2.992-.132-4.49-.108-6.993-.009-13.987.012-20.981-.015-1.381.012-2.764.227-4.14.05-1.396-.195-2.846-.01-4.197-.49-.547-.218-1.133-.149-1.668.068l-.155.05c-1.907-.78-3.726-1.932-4.943-3.624-1.949-2.497-2.638-5.707-2.86-8.8-.096-2.812-.031-5.62-.058-8.433.028-.384-.046-.81.18-1.148 2.018-3.44 4.496-6.576 7.012-9.658zM17.259 78.4c1.018-.464 2.185-.358 3.27-.287 2.205.344 4.076 2.457 3.922 4.723.006 1.684-1.136 3.188-2.588 3.952-2.571 1.368-6.29.226-7.264-2.618-.842-2.249.451-4.897 2.66-5.77zm3.376 17.31c2.208-.015 4.418-.012 6.629-.006.297-.043.589.083.668.396 4.312 9.09 8.624 18.181 12.933 27.276 2.202 4.742 4.551 9.418 6.686 14.191-3.237-.025-6.485.078-9.716-.049-5.204-10.509-10.158-21.145-15.379-31.648-2.182 4.576-4.432 9.118-6.653 13.674-.391.848-.904 1.655-1.059 2.59 4.97-.029 9.94-.035 14.911 0-.408 1.256-.782 2.556-1.52 3.67-.767 1.134-2.242 1.343-3.508 1.392-4.148.058-8.296-.01-12.444.032-.304.283-.424.701-.622 1.054-1.476 3.104-3.031 6.168-4.476 9.286-2.36.015-4.724 0-7.085.01C6.817 123.59 13.767 109.67 20.635 95.71zm28.722.015c2.594-.055 5.189-.006 7.782-.026.024 10.63.007 21.26.009 31.89.027 1.383-.058 2.826.418 4.146.607 1.39 2.375 1.26 3.622 1.558-1.22 1.572-2.636 2.98-3.907 4.511-.27.267-.482.621-.827.796-2.259-.264-4.45-1.44-5.721-3.356-1.043-1.62-1.391-3.588-1.37-5.489.001-11.344.011-22.687-.006-34.03zm74.758 16.359c3.244-2.632 7.576-3.539 11.678-3.422 4.898-.03 9.717 1.312 14.141 3.348-.027 8.53.031 17.064-.029 25.593-2.535-.072-5.072-.003-7.604-.035-.346-.768-.051-1.735-.168-2.577-.771.464-1.461 1.051-2.232 1.515-3.268 2.057-7.414 2.386-11.107 1.452-3.52-.854-6.592-3.359-8.105-6.646-1.439-3.062-1.736-6.552-1.369-9.877.387-3.555 1.965-7.079 4.795-9.35m5.365 4.624c-1.453 1.844-1.895 4.261-1.969 6.552.012 2.432.674 5.021 2.447 6.778 1.428 1.48 3.592 2.147 5.615 1.867a14.712 14.712 0 006.576-2.29c.01-4.723-.018-9.448.016-14.17-2.43-.845-5.012-1.317-7.588-1.252-1.958.018-3.923.934-5.097 2.515zm-50.18-7.548c2.727-.63 5.69-.73 8.305.404a9.56 9.56 0 014.083 3.425c2.782-1.475 5.5-3.21 8.625-3.872 3.226-.77 6.71-.495 9.729.9 1.713.786 3.198 2.152 3.944 3.9.939 2.092 1.057 4.432 1.031 6.691-.004 5.39-.004 10.775 0 16.165-1 .33-2.047.516-3.104.433-1.521-.123-3.062.103-4.57-.203l.002-16.395c-.009-1.177.124-2.368-.113-3.53-.337-1.36-1.31-2.627-2.663-3.09-.696-.268-1.425 0-2.102.188.511.126 1.026.246 1.542.372-1.392-.1-2.78.065-4.155.25-2.302.36-4.412 1.425-6.38 2.62.03 6.723 0 13.444.014 20.162-2.588-.012-5.176-.028-7.761.012-.005-6.544.004-13.09-.007-19.634-.104-1.048-.17-2.419-1.241-2.964-1.429-.727-3.079-.452-4.605-.298-2.336.187-4.502 1.186-6.517 2.323-.227.186-.663.32-.602.687-.011 6.624 0 13.25-.005 19.874a741.337 741.337 0 00-7.749-.003c.012-9.364.012-18.73 0-28.098 2.58-.035 5.163-.035 7.743.003.003.727-.004 1.454.017 2.185 2.142-.926 4.24-2.006 6.539-2.507zm88.319.421c2.455-.827 5.086-1.025 7.66-.836-.471 2.147-.85 4.318-1.332 6.47-3.541-.683-7.5-.333-10.537 1.743.016 6.876-.002 13.748.01 20.624-2.59-.012-5.178-.022-7.766.006.004-9.385-.01-18.766.004-28.144 2.605.017 5.213.06 7.82-.026-.049.742-.086 1.483-.049 2.226 1.352-.769 2.702-1.57 4.19-2.063m-11.947.131c1.57.141 3.148.037 4.723.061.945-.026 1.904.095 2.846-.08-.355-.2-.781-.132-1.162-.155-1.688.015-3.377.023-5.063-.003-.457-.014-.907.066-1.344.177zm22.806 3.2c2.412-2.449 5.795-3.675 9.156-4.099 5.994-.664 12.094.636 17.521 3.188.014 8.164 0 16.331.006 24.496-.039.354.076.756-.125 1.076-2.539.006-5.078-.006-7.615.006.004-.916.01-1.827-.012-2.743-2.096 1.901-4.746 3.233-7.584 3.5-4.037.49-8.441-.567-11.373-3.5-2.898-2.78-4.057-6.936-3.994-10.856-.097-3.995 1.093-8.223 4.02-11.068m8.842 1.821c-1.961.77-3.297 2.611-3.92 4.567-.879 2.774-.91 5.904.328 8.582.818 1.802 2.389 3.336 4.342 3.832 1.771.53 3.641.134 5.387-.31 1.395-.415 2.844-.908 3.934-1.904.082-4.67 0-9.35.039-14.026-1.592-.615-3.275-.965-4.961-1.183-1.721-.123-3.533-.292-5.149.442zm23.366-2.878c2.563-1.07 5.127-2.15 7.744-3.085.023 9.605.006 19.207.008 28.81-2.521-.035-5.045.027-7.563-.023l-.16-.12c-.028-8.529.031-17.058-.029-25.582z"/></g><path d="M194.092 28.458c.74.57.484 1.53.463 2.328-.105 1.383.055 2.764.053 4.15-.02 4.733-.002 9.463-.008 14.197-.027 4.76.152 9.536-.377 14.272-.098 1-.543 1.936-1.332 2.571 1.127-2.74 1.195-5.745 1.146-8.663-.004-7.86 0-15.72-.004-23.585.033-1.754-.064-3.515.059-5.27z" fill="#2E398E"/><path d="M97.006 49.86l.226.006c-.014 1.601-.028 3.202.024 4.8.027.463-.058.916-.2 1.353-.115-2.049.02-4.105-.05-6.159z" fill="#D7D7EC"/><path d="M46.816 70.946c.467.695.74 1.497.931 2.311.104.398.18.802.263 1.206H18.112c-2.639.046-5.379-.118-7.835-1.157.535-.218 1.121-.286 1.668-.068 1.351.48 2.8.295 4.197.49 1.376.177 2.759-.038 4.14-.05 6.994.026 13.988.006 20.981.015 1.499-.023 2.998-.043 4.49.108.447-.003 1.064.181 1.317-.317.016-.855-.217-1.69-.254-2.538zm-17.022 7.248c1.57-.499 3.356-.172 4.674.807 1.198.86 1.949 2.334 1.869 3.814-.04 1.455-.811 2.887-2.065 3.648-1.572 1.083-3.733 1.188-5.421.315-1.334-.676-2.354-1.984-2.551-3.479-.369-2.276 1.298-4.545 3.494-5.105zm183.485 20.059c2.418-.645 5.287.725 6.047 3.155.504 1.498.063 3.2-.959 4.373-1.207 1.297-3.109 1.907-4.844 1.546-2.008-.329-3.766-2-3.969-4.06-.324-2.328 1.479-4.547 3.725-5.014zM103.445 82.581c-.022-.384.092-.753.219-1.11.113 1.254.014 2.508.031 3.762-.02 1.403.084 2.81-.061 4.207-.165-.587-.205-1.194-.183-1.8.044-1.686.014-3.373-.006-5.059zm52.227 27.132c.438-.11.887-.19 1.344-.178 1.686.026 3.375.018 5.063.003.381.023.807-.046 1.162.155-.941.175-1.9.054-2.846.08-1.575-.023-3.153.081-4.723-.06zm-53.203 4.465c.677-.189 1.406-.456 2.102-.189 1.353.464 2.326 1.73 2.663 3.09.237 1.163.104 2.354.113 3.531l-.002 16.395c1.508.306 3.048.08 4.57.203 1.057.083 2.104-.104 3.104-.433-.004.2-.018.602-.021.802-2.809-.02-5.619.012-8.429-.009.005-6.454 0-12.912.003-19.369-.01-.934-.11-1.913-.601-2.729-.497-.556-1.269-.732-1.959-.919-.517-.127-1.033-.247-1.543-.373zm39.316 1.325l.277.023c-.059 4.421-.031 8.846-.018 13.268a4.694 4.694 0 01-.18.861c-.128-4.712.032-9.435-.079-14.152zm-26.625 3.351c.246 1.132.139 2.291.152 3.44.002 4.172 0 8.341.002 12.514-.018.928.145 1.887-.166 2.786-.143-3.812-.018-7.635-.059-11.449.038-2.43-.083-4.865.071-7.29z" fill="#2E398E"/></svg>