<svg width="367" height="317" viewBox="0 0 367 317" fill="none" xmlns="http://www.w3.org/2000/svg">
    <path stroke-width="2" d="M0 17.9516V27.7126L83.356 0H53.9959L0 17.9516Z" fill="#EA5400" />
    <path stroke-width="2" d="M133.454 0L0 44.3682V54.1293L162.814 0H133.454Z" fill="#EA5400" />
    <path stroke-width="2" d="M212.912 0L0 70.7849V80.546L242.272 0H212.912Z" fill="#EA5400" />
    <path stroke-width="2" d="M292.369 0L0 97.2016V106.963L321.729 0H292.369Z" fill="#EA5400" />
    <path stroke-width="2" d="M367 1.60489L0 123.618V133.379L367 11.366V1.60489Z" fill="#EA5400" />
    <path stroke-width="2" d="M367 28.0216L0 150.035V159.796L367 37.7826V28.0216Z" fill="#EA5400" />
    <path stroke-width="2" d="M367 54.4382L0 176.452V186.213L367 64.1993V54.4382Z" fill="#EA5400" />
    <path stroke-width="2" d="M367 80.8549L0 202.868V212.629L367 90.6159V80.8549Z" fill="#EA5400" />
    <path stroke-width="2" d="M367 107.272L0 229.285V239.046L367 117.033V107.272Z" fill="#EA5400" />
    <path stroke-width="2" d="M367 133.688L0 255.702V265.463L367 143.449V133.688Z" fill="#EA5400" />
    <path stroke-width="2" d="M367 160.105L0 282.118V291.879L367 169.866V160.105Z" fill="#EA5400" />
    <path stroke-width="2" d="M367 186.522L0 308.535V317H3.8981L367 196.283V186.522Z"
        fill="#EA5400" />
    <path stroke-width="2" d="M367 212.938L53.996 317H83.3559L367 222.699V212.938Z" fill="#EA5400" />
    <path stroke-width="2" d="M367 239.355L133.454 317H162.814L367 249.116V239.355Z"
        fill="#EA5400" />
    <path stroke-width="2" d="M367 265.772L212.912 317H242.272L367 275.533V265.772Z"
        fill="#EA5400" />
    <path stroke-width="2" d="M367 292.188L292.37 317H321.729L367 301.949V292.188Z" fill="#EA5400" />
</svg>