<svg width="243" height="262" viewBox="0 0 243 262" fill="none" xmlns="http://www.w3.org/2000/svg">
<path d="M94.1182 136.587C92.8934 137.027 91.6497 137.435 90.3878 137.811L90.1025 136.853C89.4843 137.037 88.8616 137.213 88.2346 137.381C87.6076 137.549 86.9803 137.708 86.3529 137.858L86.5849 138.83C85.3042 139.136 84.0229 139.404 82.7422 139.635L82.5644 138.651C81.288 138.882 80.0123 139.075 78.7384 139.232L78.8608 140.225C77.5559 140.386 76.2527 140.509 74.9527 140.596L74.8863 139.598C73.594 139.684 72.3048 139.733 71.02 139.746L71.0301 140.746C69.716 140.759 68.4064 140.735 67.1026 140.674L67.1492 139.675C65.8562 139.615 64.569 139.519 63.289 139.386L63.1861 140.381C61.8806 140.246 60.5824 140.074 59.2929 139.867L59.4517 138.879C58.1752 138.674 56.9073 138.433 55.6494 138.157L55.4352 139.134C54.1544 138.853 52.8838 138.537 51.6249 138.185L51.8937 137.222C50.6492 136.875 49.4163 136.493 48.1963 136.078L47.874 137.025C46.6335 136.602 45.4062 136.146 44.1935 135.655L44.5682 134.728C43.3709 134.244 42.188 133.727 41.0209 133.178L40.595 134.083C39.4102 133.525 38.2414 132.934 37.0901 132.312L37.5658 131.432C36.4305 130.818 35.3126 130.173 34.2133 129.497L33.6894 130.349C32.5746 129.663 31.4788 128.946 30.4033 128.199L30.9739 127.377C29.9146 126.641 28.8754 125.875 27.8577 125.08L27.2421 125.869C26.2113 125.063 25.2022 124.229 24.2162 123.366L24.8749 122.613C23.9051 121.764 22.9581 120.887 22.0352 119.983L21.3354 120.698C20.4018 119.783 19.4924 118.841 18.6088 117.872L19.3476 117.198C18.4798 116.247 17.6371 115.269 16.8209 114.267L16.0453 114.898C15.2209 113.885 14.4231 112.846 13.6534 111.783L14.4634 111.197C13.7088 110.154 12.9814 109.088 12.2828 107.998L11.441 108.538C10.7366 107.439 10.0609 106.317 9.41527 105.173L10.2863 104.681C9.65505 103.562 9.053 102.421 8.48139 101.259L7.58405 101.7C7.00901 100.531 6.46433 99.3411 5.95129 98.1305L6.87202 97.7403C6.37116 96.5584 5.90086 95.3569 5.46234 94.1362L4.52123 94.4743C4.08119 93.2495 3.67272 92.0058 3.29697 90.7439L4.25539 90.4585C4.0713 89.8403 3.89519 89.2177 3.72718 88.5907C3.55917 87.9636 3.40036 87.3363 3.25068 86.7089L2.27798 86.941C1.97245 85.6603 1.70435 84.379 1.47302 83.0982L2.45709 82.9205C2.22654 81.6441 2.03304 80.3684 1.87588 79.0944L0.883398 79.2169C0.722407 77.9119 0.598994 76.6088 0.512425 75.3088L1.51021 75.2424C1.42416 73.9501 1.37505 72.6609 1.36215 71.3761L0.362201 71.3862C0.349004 70.0721 0.373124 68.7625 0.43381 67.4587L1.43273 67.5052C1.49292 66.2123 1.5896 64.9251 1.722 63.6451L0.727301 63.5422C0.862333 62.2367 1.03397 60.9385 1.24145 59.649L2.22876 59.8078C2.43415 58.5313 2.67517 57.2634 2.95103 56.0054L1.97425 55.7912C2.25512 54.5105 2.57156 53.2399 2.92282 51.981L3.88603 52.2497C4.23323 51.0053 4.61492 49.7724 5.03029 48.5523L4.08365 48.23C4.50598 46.9896 4.96263 45.7623 5.45277 44.5496L6.37991 44.9243C6.86382 43.727 7.38086 42.5441 7.93021 41.377L7.02543 40.9511C7.58317 39.7663 8.17372 38.5975 8.79628 37.4462L9.67591 37.9219C10.2898 36.7866 10.9353 35.6687 11.6115 34.5694L10.7597 34.0455C11.4454 32.9307 12.1624 31.8348 12.9096 30.7594L13.7308 31.33C14.4669 30.2707 15.2328 29.2315 16.0277 28.2138L15.2396 27.5982C16.0448 26.5674 16.8794 25.5583 17.7425 24.5723L18.4949 25.2309C19.3438 24.2612 20.2207 23.3142 21.1248 22.3913L20.4105 21.6915C21.3251 20.7578 22.2672 19.8485 23.2359 18.9649L23.9098 19.7037C24.8613 18.8358 25.8389 17.9931 26.8417 17.177L26.2104 16.4014C27.2235 15.577 28.2619 14.7792 29.325 14.0095L29.9114 14.8195C30.9538 14.0648 32.0202 13.3375 33.1098 12.6389L32.5701 11.7971C33.6688 11.0926 34.7909 10.417 35.9355 9.77135L36.4268 10.6423C37.5459 10.0111 38.6869 9.40908 39.8491 8.83747L39.4077 7.94013C40.5769 7.36509 41.7671 6.82041 42.9777 6.30737L43.3679 7.2281C44.5498 6.72724 45.7513 6.25695 46.972 5.81842L46.6339 4.87731C47.8587 4.43727 49.1024 4.02879 50.3643 3.65305L50.6497 4.61147C51.2679 4.42739 51.8905 4.25127 52.5175 4.08326C53.1446 3.91525 53.7719 3.75645 54.3993 3.60676L54.1672 2.63406C55.4479 2.32853 56.7292 2.06043 58.01 1.82909L58.1877 2.81317C59.4641 2.58262 60.7398 2.38912 62.0138 2.23196L61.8913 1.23948C63.1963 1.07849 64.4994 0.955072 65.7994 0.868504L65.8659 1.86629C67.1581 1.78024 68.4473 1.73113 69.7321 1.71822L69.722 0.718275C71.0361 0.705073 72.3457 0.729201 73.6495 0.789892L73.603 1.78881C74.8959 1.849 76.1831 1.94567 77.4631 2.07807L77.566 1.08337C78.8715 1.2184 80.1697 1.39005 81.4592 1.59754L81.3004 2.58484C82.5769 2.79023 83.8448 3.03125 85.1028 3.30711L85.317 2.33032C86.5977 2.61119 87.8683 2.92765 89.1272 3.27889L88.8585 4.24211C90.1029 4.58931 91.3358 4.971 92.5559 5.38637L92.8782 4.43973C94.1186 4.86206 95.3459 5.31871 96.5586 5.80885L96.1839 6.73599C97.3812 7.2199 98.5641 7.73694 99.7312 8.28629L100.157 7.38151C101.342 7.93924 102.511 8.5298 103.662 9.15236L103.186 10.032C104.322 10.6459 105.44 11.2913 106.539 11.9675L107.063 11.1158C108.178 11.8015 109.273 12.5184 110.349 13.2657L109.778 14.0869C110.837 14.823 111.877 15.5889 112.894 16.3838L113.51 15.5957C114.541 16.4009 115.55 17.2354 116.536 18.0985L115.877 18.851C116.847 19.6999 117.794 20.5768 118.717 21.4809L119.417 20.7666C120.35 21.6812 121.26 22.6233 122.143 23.592L121.404 24.2659C122.272 25.2174 123.115 26.1949 123.931 27.1977L124.707 26.5665C125.531 27.5795 126.329 28.618 127.099 29.6811L126.289 30.2675C127.043 31.3099 127.771 32.3762 128.469 33.4659L129.311 32.9262C130.016 34.0249 130.691 35.147 131.337 36.2916L130.466 36.7829C131.097 37.902 131.699 39.043 132.271 40.2052L133.168 39.7638C133.743 40.933 134.288 42.1232 134.801 43.3338L133.88 43.724C134.381 44.9058 134.851 46.1074 135.29 47.3281L136.231 46.99C136.671 48.2148 137.079 49.4585 137.455 50.7204L136.497 51.0057C136.681 51.624 136.857 52.2466 137.025 52.8736C137.193 53.5006 137.352 54.1279 137.501 54.7554L138.474 54.5233C138.78 55.804 139.048 57.0853 139.279 58.366L138.295 58.5438C138.526 59.8202 138.719 61.0959 138.876 62.3698L139.869 62.2474C140.03 63.5523 140.153 64.8555 140.24 66.1555L139.242 66.2219C139.328 67.5142 139.377 68.8034 139.39 70.0882L140.39 70.0781C140.403 71.3922 140.379 72.7018 140.318 74.0056L139.319 73.9591C139.259 75.252 139.163 76.5392 139.03 77.8192L140.025 77.9221C139.89 79.2276 139.718 80.5258 139.511 81.8153L138.523 81.6565C138.318 82.933 138.077 84.2009 137.801 85.4588L138.778 85.6731C138.497 86.9538 138.181 88.2244 137.829 89.4833L136.866 89.2145C136.519 90.459 136.137 91.6919 135.722 92.9119L136.668 93.2342C136.246 94.4747 135.789 95.702 135.299 96.9147L134.372 96.54C133.888 97.7373 133.371 98.9202 132.822 100.087L133.727 100.513C133.169 101.698 132.578 102.867 131.956 104.018L131.076 103.542C130.462 104.678 129.817 105.796 129.141 106.895L129.992 107.419C129.307 108.534 128.59 109.629 127.842 110.705L127.021 110.134C126.285 111.194 125.519 112.233 124.724 113.251L125.512 113.866C124.707 114.897 123.873 115.906 123.01 116.892L122.257 116.233C121.408 117.203 120.531 118.15 119.627 119.073L120.342 119.773C119.427 120.706 118.485 121.616 117.516 122.499L116.842 121.761C115.891 122.628 114.913 123.471 113.91 124.287L114.542 125.063C113.529 125.887 112.49 126.685 111.427 127.455L110.841 126.645C109.798 127.399 108.732 128.127 107.642 128.825L108.182 129.667C107.083 130.372 105.961 131.047 104.817 131.693L104.325 130.822C103.206 131.453 102.065 132.055 100.903 132.627L101.344 133.524C100.175 134.099 98.985 134.644 97.7744 135.157L97.3842 134.236C96.2024 134.737 95.0008 135.207 93.7801 135.646L94.1182 136.587Z" stroke="#EA5400" stroke-width="2" stroke-dasharray="4 4"/>
<circle cx="223.468" cy="147.388" r="18" transform="rotate(75 223.468 147.388)" stroke="#FF7A00" stroke-width="4" stroke-dasharray="8 8"/>
<circle cx="105.062" cy="246.408" r="14.5" transform="rotate(30 105.062 246.408)" stroke="#FF7A00" stroke-dasharray="8 8"/>
</svg>
