<svg width="147" height="34" viewBox="0 0 147 34" fill="none" xmlns="http://www.w3.org/2000/svg">
    <path fill-rule="evenodd" clip-rule="evenodd"
        d="M141.346 2.83333C141.346 4.39814 142.612 5.66667 144.173 5.66667C145.734 5.66667 147 4.39814 147 2.83333C147 1.26853 145.734 -5.53236e-08 144.173 -1.23569e-07C142.612 -1.91814e-07 141.346 1.26853 141.346 2.83333ZM113.077 2.83333C113.077 4.39814 114.343 5.66667 115.904 5.66667C117.465 5.66667 118.731 4.39814 118.731 2.83333C118.731 1.26853 117.465 -1.29101e-06 115.904 -1.35926e-06C114.343 -1.4275e-06 113.077 1.26853 113.077 2.83333ZM87.6346 5.66667C86.0733 5.66667 84.8077 4.39814 84.8077 2.83333C84.8077 1.26852 86.0733 -2.66319e-06 87.6346 -2.59494e-06C89.1959 -2.5267e-06 90.4615 1.26852 90.4615 2.83333C90.4615 4.39814 89.1959 5.66667 87.6346 5.66667ZM56.5385 2.83333C56.5385 4.39814 57.8041 5.66666 59.3654 5.66666C60.9267 5.66666 62.1923 4.39814 62.1923 2.83333C62.1923 1.26852 60.9267 -3.76239e-06 59.3654 -3.83063e-06C57.8041 -3.89888e-06 56.5385 1.26852 56.5385 2.83333ZM31.0962 5.66666C29.5349 5.66666 28.2692 4.39814 28.2692 2.83333C28.2692 1.26852 29.5349 -5.13456e-06 31.0962 -5.06632e-06C32.6574 -4.99807e-06 33.9231 1.26852 33.9231 2.83333C33.9231 4.39814 32.6574 5.66666 31.0962 5.66666ZM-1.23849e-07 2.83333C-1.92249e-07 4.39813 1.26566 5.66666 2.82692 5.66666C4.38818 5.66666 5.65384 4.39813 5.65384 2.83333C5.65384 1.26852 4.38818 -6.23376e-06 2.82692 -6.30201e-06C1.26566 -6.37025e-06 -5.54491e-08 1.26852 -1.23849e-07 2.83333ZM144.173 34C142.612 34 141.346 32.7315 141.346 31.1667C141.346 29.6019 142.612 28.3333 144.173 28.3333C145.734 28.3333 147 29.6019 147 31.1667C147 32.7315 145.734 34 144.173 34ZM113.077 31.1667C113.077 32.7315 114.343 34 115.904 34C117.465 34 118.731 32.7315 118.731 31.1667C118.731 29.6019 117.465 28.3333 115.904 28.3333C114.343 28.3333 113.077 29.6019 113.077 31.1667ZM87.6346 34C86.0733 34 84.8077 32.7315 84.8077 31.1667C84.8077 29.6019 86.0733 28.3333 87.6346 28.3333C89.1959 28.3333 90.4615 29.6019 90.4615 31.1667C90.4615 32.7315 89.1959 34 87.6346 34ZM56.5385 31.1667C56.5385 32.7315 57.8041 34 59.3654 34C60.9266 34 62.1923 32.7315 62.1923 31.1667C62.1923 29.6019 60.9266 28.3333 59.3654 28.3333C57.8041 28.3333 56.5385 29.6019 56.5385 31.1667ZM31.0962 34C29.5349 34 28.2692 32.7315 28.2692 31.1667C28.2692 29.6019 29.5349 28.3333 31.0962 28.3333C32.6574 28.3333 33.9231 29.6019 33.9231 31.1667C33.9231 32.7315 32.6574 34 31.0962 34ZM-1.36234e-06 31.1667C-1.43074e-06 32.7315 1.26565 34 2.82692 34C4.38818 34 5.65384 32.7315 5.65384 31.1667C5.65384 29.6019 4.38818 28.3333 2.82692 28.3333C1.26565 28.3333 -1.29394e-06 29.6019 -1.36234e-06 31.1667Z"
        fill="white" />
</svg>