<svg width="207" height="38" viewBox="0 0 207 38" fill="none" xmlns="http://www.w3.org/2000/svg">
<g clip-path="url(#clip0_705_2)">
<circle cx="3.98077" cy="3.98077" r="3.98077" transform="matrix(-4.37114e-08 -1 -1 4.37114e-08 7.96289 7.96155)" fill="#D9D9D9"/>
<circle cx="3.98077" cy="3.98077" r="3.98077" transform="matrix(-4.37114e-08 -1 -1 4.37114e-08 7.96143 37.9231)" fill="#D9D9D9"/>
<circle cx="3.98077" cy="3.98077" r="3.98077" transform="matrix(-4.37114e-08 -1 -1 4.37114e-08 47.7693 37.9231)" fill="#D9D9D9"/>
<circle cx="3.98077" cy="3.98077" r="3.98077" transform="matrix(-4.37114e-08 -1 -1 4.37114e-08 47.7705 7.96155)" fill="#D9D9D9"/>
<circle cx="3.98077" cy="3.98077" r="3.98077" transform="matrix(-4.37114e-08 -1 -1 4.37114e-08 87.5781 7.96155)" fill="#D9D9D9"/>
<circle cx="3.98077" cy="3.98077" r="3.98077" transform="matrix(-4.37114e-08 -1 -1 4.37114e-08 87.5776 37.9231)" fill="#D9D9D9"/>
<circle cx="3.98077" cy="3.98077" r="3.98077" transform="matrix(-4.37114e-08 -1 -1 4.37114e-08 127.386 37.9231)" fill="#D9D9D9"/>
<circle cx="3.98077" cy="3.98077" r="3.98077" transform="matrix(-4.37114e-08 -1 -1 4.37114e-08 127.386 7.96155)" fill="#D9D9D9"/>
<circle cx="3.98077" cy="3.98077" r="3.98077" transform="matrix(-4.37114e-08 -1 -1 4.37114e-08 167.194 7.96155)" fill="#D9D9D9"/>
<circle cx="3.98077" cy="3.98077" r="3.98077" transform="matrix(-4.37114e-08 -1 -1 4.37114e-08 167.193 37.9231)" fill="#D9D9D9"/>
<circle cx="3.98077" cy="3.98077" r="3.98077" transform="matrix(-4.37114e-08 -1 -1 4.37114e-08 207.001 37.9231)" fill="#D9D9D9"/>
<circle cx="3.98077" cy="3.98077" r="3.98077" transform="matrix(-4.37114e-08 -1 -1 4.37114e-08 207.001 7.96155)" fill="#D9D9D9"/>
</g>
<defs>
<clipPath id="clip0_705_2">
<rect width="38" height="207" fill="white" transform="translate(0 38) rotate(-90)"/>
</clipPath>
</defs>
</svg>
