<svg xmlns="http://www.w3.org/2000/svg" viewBox="0 0 619.88 675.42"><g id="Layer_2" data-name="Layer 2"><g id="Layer_1-2" data-name="Layer 1"><polygon points="309.94 0 0 178.94 0 313.45 152.4 401.44 467.49 219.53 513.69 246.2 198.6 428.12 309.94 492.4 619.88 313.45 619.88 178.94 467.49 90.96 152.4 272.87 106.2 246.2 421.28 64.28 309.94 0" style="fill:#ea5400;fill-rule:evenodd"/><path d="M309.94,369.59,208.57,428.12l101.37,58.52Zm0-363.83L5,181.82V310.58l147.42,85.1,157.54-90.95V187.67l-157.54,91L96.23,246.2,309.94,122.81Z" style="fill:#ea5400;fill-rule:evenodd"/><polygon points="619.88 367.91 309.94 546.85 0 367.91 0 496.47 309.94 675.42 619.88 496.47 619.88 367.91" style="fill:currentColor;fill-rule:evenodd"/><polygon points="309.94 552.61 4.99 376.54 4.99 493.59 309.94 669.66 309.94 552.61" style="fill:currentColor;fill-rule:evenodd"/></g></g></svg>