<svg width="275" height="265" viewBox="0 0 275 265" fill="none" xmlns="http://www.w3.org/2000/svg">
    <path
        d="M76.4999 22.0038L111.3 42.0956C116.25 44.9537 119.3 50.2357 119.3 55.952V96.1355C119.3 101.852 116.25 107.134 111.3 109.992L76.4999 130.084C71.5495 132.942 65.4503 132.942 60.4999 130.084L25.6999 109.992C20.7495 107.134 17.6999 101.852 17.6999 96.1355V55.952C17.6999 50.2357 20.7495 44.9537 25.6999 42.0956L60.4999 22.0038C65.4503 19.1456 71.5495 19.1456 76.4999 22.0038Z"
        fill="#EA5400" fill-opacity="0.17" />
    <path fill-rule="evenodd" clip-rule="evenodd"
        d="M78.4999 2.72026C72.3119 -0.852394 64.6879 -0.852391 58.4999 2.72027L9.99988 30.7217C3.81186 34.2944 -0.00012207 40.897 -0.00012207 48.0423V104.045C-0.00012207 111.191 3.81186 117.793 9.99988 121.366L58.4999 149.367C64.6879 152.94 72.3119 152.94 78.4999 149.367L127 121.366C133.188 117.793 137 111.191 137 104.045V48.0423C137 40.8969 133.188 34.2944 127 30.7217L78.4999 2.72026ZM58.4999 18.5397C64.6879 14.967 72.3119 14.967 78.4999 18.5397L113.3 38.6315C119.488 42.2041 123.3 48.8066 123.3 55.952V96.1355C123.3 103.281 119.488 109.883 113.3 113.456L78.4999 133.548C72.3119 137.12 64.6879 137.12 58.4999 133.548L23.6999 113.456C17.5119 109.883 13.6999 103.281 13.6999 96.1355V55.952C13.6999 48.8067 17.5119 42.2041 23.6999 38.6315L58.4999 18.5397Z"
        fill="#EA5400" fill-opacity="0.17" />
    <path
        d="M109.967 237.692C108.727 236.451 107.833 234.904 107.379 233.209L108.828 232.82C108.638 232.112 108.538 231.374 108.538 230.621V228.602H107.038V224.564H108.538V220.526H107.038V216.488H108.538V212.451H107.038V208.413H108.538V204.375H107.038V200.337H108.538V196.3H107.038V192.262H108.538V188.224H107.038V184.186H108.538V182.168C108.538 181.414 108.638 180.676 108.828 179.968L107.379 179.579C107.833 177.885 108.727 176.337 109.967 175.096L111.028 176.157C111.546 175.639 112.136 175.183 112.788 174.806L114.537 173.797L113.787 172.498L117.284 170.479L118.034 171.778L121.53 169.759L120.78 168.46L124.277 166.441L125.027 167.74L128.524 165.721L127.774 164.422L131.271 162.403L132.021 163.703L135.518 161.684L134.768 160.385L138.264 158.366L139.014 159.665L142.511 157.646L141.761 156.347L145.258 154.328L146.008 155.627L149.505 153.608L148.755 152.309L152.251 150.29L153.001 151.589L154.75 150.58C155.402 150.203 156.092 149.92 156.8 149.73L156.412 148.282C158.106 147.828 159.893 147.828 161.588 148.282L161.2 149.73C161.908 149.92 162.598 150.203 163.25 150.58L164.998 151.589L165.748 150.29L169.245 152.309L168.495 153.608L171.992 155.627L172.742 154.328L176.239 156.347L175.489 157.646L178.985 159.665L179.735 158.366L183.232 160.385L182.482 161.684L185.979 163.703L186.729 162.403L190.226 164.422L189.476 165.721L192.973 167.74L193.723 166.441L197.219 168.46L196.469 169.759L199.966 171.778L200.716 170.479L204.213 172.498L203.463 173.797L205.211 174.806C205.864 175.183 206.454 175.639 206.972 176.157L208.033 175.096C209.273 176.337 210.167 177.885 210.621 179.579L209.172 179.968C209.362 180.676 209.461 181.414 209.461 182.168V184.186H210.961V188.224H209.461V192.262H210.961V196.3H209.461V200.337H210.961V204.375H209.461V208.413H210.961V212.451H209.461V216.488H210.961V220.526H209.461V224.564H210.961V228.602H209.461V230.621C209.461 231.374 209.362 232.112 209.172 232.82L210.621 233.209C210.167 234.904 209.273 236.451 208.033 237.692L206.972 236.631C206.454 237.15 205.864 237.605 205.211 237.982L203.463 238.991L204.213 240.29L200.716 242.309L199.966 241.01L196.469 243.029L197.219 244.328L193.723 246.347L192.973 245.048L189.476 247.067L190.226 248.366L186.729 250.385L185.979 249.086L182.482 251.104L183.232 252.403L179.735 254.422L178.985 253.123L175.489 255.142L176.239 256.441L172.742 258.46L171.992 257.161L168.495 259.18L169.245 260.479L165.748 262.498L164.998 261.199L163.25 262.208C162.598 262.585 161.908 262.868 161.2 263.058L161.588 264.507C159.893 264.961 158.106 264.961 156.412 264.507L156.8 263.058C156.092 262.868 155.402 262.585 154.75 262.208L153.001 261.199L152.251 262.498L148.755 260.479L149.505 259.18L146.008 257.161L145.258 258.46L141.761 256.441L142.511 255.142L139.014 253.123L138.264 254.422L134.768 252.403L135.518 251.104L132.021 249.086L131.271 250.385L127.774 248.366L128.524 247.067L125.027 245.048L124.277 246.347L120.78 244.328L121.53 243.029L118.034 241.01L117.284 242.309L113.787 240.29L114.537 238.991L112.788 237.982C112.136 237.605 111.546 237.15 111.028 236.631L109.967 237.692Z"
        stroke="#FF7A00" stroke-width="3" stroke-dasharray="4 12" />
    <path
        d="M246 94.1261C247.856 93.0543 250.143 93.0543 252 94.1261L271.981 105.662C273.837 106.734 274.981 108.715 274.981 110.858V133.93C274.981 136.074 273.837 138.054 271.981 139.126L252 150.662C250.143 151.734 247.856 151.734 246 150.662L226.019 139.126C224.163 138.054 223.019 136.074 223.019 133.93V110.858C223.019 108.715 224.163 106.734 226.019 105.662L246 94.1261Z"
        fill="#FF7A00" fill-opacity="0.11" />
</svg>