<svg xmlns="http://www.w3.org/2000/svg" height="800" width="1200" viewBox="-74.18505 -50.5365 642.9371 303.219"><path d="M.189 0h494.378v202.146H.188z" fill="#fff" fill-rule="evenodd"/><path d="M494.567 202.146H0v-35.433h494.567z" fill="#f25c19"/><path d="M119.507 183.988h1.96c2.245 0 5.38-.585 5.38-4.165 0-3.466-2.139-4.423-5.03-4.423-2.31 0-2.31.572-2.31 2.885zm-3.797-5.74c0-3.173-.076-3.173-3.28-3.652v-.704h8.487c2.585 0 9.725 0 9.725 5.738 0 3.653-2.547 4.871-5.273 5.286l6.345 10.572h-3.968l-6.104-9.998h-2.135v9.998h-3.797z" fill="#fff"/><path d="M119.507 183.988h1.96c2.245 0 5.38-.585 5.38-4.165 0-3.466-2.139-4.423-5.03-4.423-2.31 0-2.31.572-2.31 2.885zm-3.797-5.74c0-3.173-.076-3.173-3.28-3.652v-.704h8.487c2.585 0 9.725 0 9.725 5.738 0 3.653-2.547 4.871-5.273 5.286l6.345 10.572h-3.968l-6.104-9.998h-2.135v9.998h-3.797z" fill="#fff" stroke="#fff" stroke-width=".465" stroke-miterlimit="2.613"/><path d="M145.018 185.046c0-.733-.068-3.747-3.063-3.747-2.587 0-3.31 2.53-3.31 3.747zm3.146 9.923c-.655.225-2.484.87-4.865.87-5.276 0-8.449-2.991-8.449-8.355 0-5.069 2.621-7.282 7.242-7.282 5.898 0 6.382 3.979 6.382 6.123h-9.829c0 3.213 1.412 7.778 6.273 7.778 1.45 0 2.66-.322 3.246-.549z" fill="#fff"/><path d="M145.018 185.046c0-.733-.068-3.747-3.063-3.747-2.587 0-3.31 2.53-3.31 3.747zm3.146 9.923c-.655.225-2.484.87-4.865.87-5.276 0-8.449-2.991-8.449-8.355 0-5.069 2.621-7.282 7.242-7.282 5.898 0 6.382 3.979 6.382 6.123h-9.829c0 3.213 1.412 7.778 6.273 7.778 1.45 0 2.66-.322 3.246-.549z" fill="#fff" stroke="#fff" stroke-width=".465" stroke-miterlimit="2.613"/><path d="M153.16 177.383c0-2.277-.586-2.82-2.618-2.92v-.636l6.071-.805v22.465h-3.454z" fill="#fff"/><path d="M153.16 177.383c0-2.277-.586-2.82-2.618-2.92v-.636l6.071-.805v22.465h-3.454z" fill="#fff" stroke="#fff" stroke-width=".465" stroke-miterlimit="2.613"/><path d="M163.408 175.65c0-1.086.961-1.99 2.171-1.99 1.17 0 2.207.87 2.207 1.99 0 1.121-1.038 2.02-2.243 2.02-1.174 0-2.135-.899-2.135-2.02zm.376 9.075c0-2.248-.557-2.787-2.66-2.847v-.646l6.113-1.03v15.285h-3.453z" fill="#fff"/><path d="M163.408 175.65c0-1.086.961-1.99 2.171-1.99 1.17 0 2.207.87 2.207 1.99 0 1.121-1.038 2.02-2.243 2.02-1.174 0-2.135-.899-2.135-2.02zm.376 9.075c0-2.248-.557-2.787-2.66-2.847v-.646l6.113-1.03v15.285h-3.453z" fill="#fff" stroke="#fff" stroke-width=".465" stroke-miterlimit="2.613"/><path d="M181.273 188.351c-1.245.031-5.277.196-5.277 3.245 0 1.482.79 2.508 2.065 2.508 1.998 0 3.212-1.704 3.212-3.886zm0 5.239c-.625.676-1.795 2.246-4.452 2.246-2.693 0-4.623-1.799-4.623-3.689 0-4.536 6.867-4.883 9.075-4.946v-1.646c0-2.017 0-4.255-2.172-4.255-2.28 0-2.413 1.853-2.413 3.27h-4.112c.382-2.124 1.517-4.366 6.489-4.366 4.896 0 5.656 2.344 5.656 5.514v9.77h-3.448z" fill="#fff"/><path d="M181.273 188.351c-1.245.031-5.277.196-5.277 3.245 0 1.482.79 2.508 2.065 2.508 1.998 0 3.212-1.704 3.212-3.886zm0 5.239c-.625.676-1.795 2.246-4.452 2.246-2.693 0-4.623-1.799-4.623-3.689 0-4.536 6.867-4.883 9.075-4.946v-1.646c0-2.017 0-4.255-2.172-4.255-2.28 0-2.413 1.853-2.413 3.27h-4.112c.382-2.124 1.517-4.366 6.489-4.366 4.896 0 5.656 2.344 5.656 5.514v9.77h-3.448z" fill="#fff" stroke="#fff" stroke-width=".465" stroke-miterlimit="2.613"/><path d="M193.411 188.384c0 1.705.275 5.719 3.14 5.719 3.269 0 3.548-3.758 3.548-6.236 0-2.242-.309-5.928-3.306-5.928-3.004 0-3.382 3.331-3.382 5.125zm-3.451-11.066c0-2.243-.585-2.754-2.654-2.854v-.637l6.105-.805v9.588h.07c.621-1.058 1.617-2.407 4.305-2.407 4.935 0 6.1 4.2 6.1 8.121 0 4.008-1.716 7.515-6.202 7.515-2.344 0-3.62-1.386-4.443-2.156l-2.35 1.805h-.931z" fill="#fff"/><path d="M193.411 188.384c0 1.705.275 5.719 3.14 5.719 3.269 0 3.548-3.758 3.548-6.236 0-2.242-.309-5.928-3.306-5.928-3.004 0-3.382 3.331-3.382 5.125zm-3.451-11.066c0-2.243-.585-2.754-2.654-2.854v-.637l6.105-.805v9.588h.07c.621-1.058 1.617-2.407 4.305-2.407 4.935 0 6.1 4.2 6.1 8.121 0 4.008-1.716 7.515-6.202 7.515-2.344 0-3.62-1.386-4.443-2.156l-2.35 1.805h-.931z" fill="#fff" stroke="#fff" stroke-width=".465" stroke-miterlimit="2.613"/><path d="M209.026 177.383c0-2.277-.575-2.82-2.616-2.92v-.636l6.072-.805v22.465h-3.456z" fill="#fff"/><path d="M209.026 177.383c0-2.277-.575-2.82-2.616-2.92v-.636l6.072-.805v22.465h-3.456z" fill="#fff" stroke="#fff" stroke-width=".465" stroke-miterlimit="2.613"/><path d="M227.896 185.046c0-.733-.068-3.747-3.073-3.747-2.583 0-3.311 2.53-3.311 3.747zm3.137 9.923c-.655.225-2.476.87-4.861.87-5.283 0-8.446-2.991-8.446-8.355 0-5.069 2.623-7.282 7.24-7.282 5.893 0 6.38 3.979 6.38 6.123h-9.834c0 3.213 1.413 7.778 6.284 7.778 1.447 0 2.65-.322 3.237-.549z" fill="#fff"/><path d="M227.896 185.046c0-.733-.068-3.747-3.073-3.747-2.583 0-3.311 2.53-3.311 3.747zm3.137 9.923c-.655.225-2.476.87-4.861.87-5.283 0-8.446-2.991-8.446-8.355 0-5.069 2.623-7.282 7.24-7.282 5.893 0 6.38 3.979 6.38 6.123h-9.834c0 3.213 1.413 7.778 6.284 7.778 1.447 0 2.65-.322 3.237-.549z" fill="#fff" stroke="#fff" stroke-width=".465" stroke-miterlimit="2.613"/><path d="M256.764 183.153c-.521-.323-2.172-1.542-4.11-1.542-1.1 0-2.411.397-2.411 1.765 0 3.05 7.55 3.115 7.55 8.03 0 3.145-2.79 4.43-6.21 4.43-2.095 0-3.616-.38-4.41-.576v-2.51c1 .642 2.62 1.673 4.552 1.673 2.176 0 2.965-1.03 2.965-2.146 0-3.154-7.547-3.346-7.547-7.774 0-2.312 1.691-4.298 5.757-4.298 1.755 0 3.275.416 3.864.545z" fill="#fff"/><path d="M256.764 183.153c-.521-.323-2.172-1.542-4.11-1.542-1.1 0-2.411.397-2.411 1.765 0 3.05 7.55 3.115 7.55 8.03 0 3.145-2.79 4.43-6.21 4.43-2.095 0-3.616-.38-4.41-.576v-2.51c1 .642 2.62 1.673 4.552 1.673 2.176 0 2.965-1.03 2.965-2.146 0-3.154-7.547-3.346-7.547-7.774 0-2.312 1.691-4.298 5.757-4.298 1.755 0 3.275.416 3.864.545z" fill="#fff" stroke="#fff" stroke-width=".465" stroke-miterlimit="2.613"/><path d="M269.246 194.743c3.376 0 3.659-3.5 3.659-6.714 0-2.946-.31-6.729-3.66-6.729-3.412 0-3.653 3.904-3.653 6.73 0 2.67.241 6.713 3.654 6.713zm-7.452-6.714c0-5.351 2.41-7.827 7.452-7.827 5.001 0 7.455 3.206 7.455 7.827 0 5.24-2.356 7.807-7.455 7.807-5.543 0-7.452-3.307-7.452-7.807" fill="#fff"/><path d="M269.246 194.743c3.376 0 3.659-3.5 3.659-6.714 0-2.946-.31-6.729-3.66-6.729-3.412 0-3.653 3.904-3.653 6.73 0 2.67.241 6.713 3.654 6.713zm-7.452-6.714c0-5.351 2.41-7.827 7.452-7.827 5.001 0 7.455 3.206 7.455 7.827 0 5.24-2.356 7.807-7.455 7.807-5.543 0-7.452-3.307-7.452-7.807z" fill="#fff" stroke="#fff" stroke-width=".465" stroke-miterlimit="2.613"/><path d="M281.868 177.383c0-2.277-.584-2.82-2.621-2.92v-.636l6.068-.805v22.465h-3.447z" fill="#fff"/><path d="M281.868 177.383c0-2.277-.584-2.82-2.621-2.92v-.636l6.068-.805v22.465h-3.447z" fill="#fff" stroke="#fff" stroke-width=".465" stroke-miterlimit="2.613"/><path d="M302.351 191.86h-.066c-.59 1.41-2.003 3.976-5.346 3.976-4.619 0-4.619-4.178-4.619-6.554v-4.558c0-2.247-.554-2.787-2.652-2.847v-.644l6.107-1.03v9.66c0 2.923 1.164 3.791 2.817 3.791 2.244 0 3.76-2.728 3.76-5.393v-3.537c0-2.247-.582-2.787-2.65-2.847v-.644l6.104-1.03v15.285h-3.455z" fill="#fff"/><path d="M302.351 191.86h-.066c-.59 1.41-2.003 3.976-5.346 3.976-4.619 0-4.619-4.178-4.619-6.554v-4.558c0-2.247-.554-2.787-2.652-2.847v-.644l6.107-1.03v9.66c0 2.923 1.164 3.791 2.817 3.791 2.244 0 3.76-2.728 3.76-5.393v-3.537c0-2.247-.582-2.787-2.65-2.847v-.644l6.104-1.03v15.285h-3.455z" fill="#fff" stroke="#fff" stroke-width=".465" stroke-miterlimit="2.613"/><path d="M319.841 195.58c-.762.134-1.552.256-2.315.256-3.31 0-5.234-.48-5.234-4.142v-9.853h-2.693v-1.286h2.693v-2.529l3.45-2.852v5.381h4.51v1.286h-4.51v9.338c0 2.245.168 3.245 2.82 3.245a6.19 6.19 0 001.28-.125z" fill="#fff"/><path d="M319.841 195.58c-.762.134-1.552.256-2.315.256-3.31 0-5.234-.48-5.234-4.142v-9.853h-2.693v-1.286h2.693v-2.529l3.45-2.852v5.381h4.51v1.286h-4.51v9.338c0 2.245.168 3.245 2.82 3.245a6.19 6.19 0 001.28-.125z" fill="#fff" stroke="#fff" stroke-width=".465" stroke-miterlimit="2.613"/><path d="M325.498 175.65c0-1.086.964-1.99 2.169-1.99 1.173 0 2.21.87 2.21 1.99 0 1.121-1.037 2.02-2.24 2.02-1.175 0-2.139-.899-2.139-2.02zm.374 9.075c0-2.248-.551-2.787-2.653-2.847v-.646l6.103-1.03v15.285h-3.45z" fill="#fff"/><path d="M325.498 175.65c0-1.086.964-1.99 2.169-1.99 1.173 0 2.21.87 2.21 1.99 0 1.121-1.037 2.02-2.24 2.02-1.175 0-2.139-.899-2.139-2.02zm.374 9.075c0-2.248-.551-2.787-2.653-2.847v-.646l6.103-1.03v15.285h-3.45z" fill="#fff" stroke="#fff" stroke-width=".465" stroke-miterlimit="2.613"/><path d="M341.497 194.743c3.38 0 3.656-3.5 3.656-6.714 0-2.946-.308-6.729-3.656-6.729-3.415 0-3.656 3.904-3.656 6.73 0 2.67.24 6.713 3.656 6.713zm-7.45-6.714c0-5.351 2.412-7.827 7.45-7.827 5.002 0 7.446 3.206 7.446 7.827 0 5.24-2.34 7.807-7.446 7.807-5.551 0-7.45-3.307-7.45-7.807" fill="#fff"/><path d="M341.497 194.743c3.38 0 3.656-3.5 3.656-6.714 0-2.946-.308-6.729-3.656-6.729-3.415 0-3.656 3.904-3.656 6.73 0 2.67.24 6.713 3.656 6.713zm-7.45-6.714c0-5.351 2.412-7.827 7.45-7.827 5.002 0 7.446 3.206 7.446 7.827 0 5.24-2.34 7.807-7.446 7.807-5.551 0-7.45-3.307-7.45-7.807z" fill="#fff" stroke="#fff" stroke-width=".465" stroke-miterlimit="2.613"/><path d="M353.884 184.726c0-2.249-.592-2.786-2.762-2.85v-.644l6.206-1.03v4.111h.069c.515-1.125 2.346-4.111 5.761-4.111 3.14 0 4.174 2.05 4.174 4.524v10.761h-3.453v-8.321c0-2.538 0-4.779-2.31-4.779-2.272 0-4.241 2.976-4.241 5.26v7.84h-3.444z" fill="#fff"/><path d="M353.884 184.726c0-2.249-.592-2.786-2.762-2.85v-.644l6.206-1.03v4.111h.069c.515-1.125 2.346-4.111 5.761-4.111 3.14 0 4.174 2.05 4.174 4.524v10.761h-3.453v-8.321c0-2.538 0-4.779-2.31-4.779-2.272 0-4.241 2.976-4.241 5.26v7.84h-3.444z" fill="#fff" stroke="#fff" stroke-width=".465" stroke-miterlimit="2.613"/><path d="M381.125 183.153c-.516-.323-2.176-1.542-4.103-1.542-1.111 0-2.419.397-2.419 1.765 0 3.05 7.555 3.115 7.555 8.03 0 3.145-2.79 4.43-6.206 4.43-2.109 0-3.618-.38-4.415-.576v-2.51c1 .642 2.625 1.673 4.551 1.673 2.171 0 2.965-1.03 2.965-2.146 0-3.154-7.548-3.346-7.548-7.774 0-2.312 1.687-4.298 5.757-4.298 1.761 0 3.278.416 3.862.545z" fill="#fff"/><path d="M381.125 183.153c-.516-.323-2.176-1.542-4.103-1.542-1.111 0-2.419.397-2.419 1.765 0 3.05 7.555 3.115 7.555 8.03 0 3.145-2.79 4.43-6.206 4.43-2.109 0-3.618-.38-4.415-.576v-2.51c1 .642 2.625 1.673 4.551 1.673 2.171 0 2.965-1.03 2.965-2.146 0-3.154-7.548-3.346-7.548-7.774 0-2.312 1.687-4.298 5.757-4.298 1.761 0 3.278.416 3.862.545z" fill="#fff" stroke="#fff" stroke-width=".465" stroke-miterlimit="2.613"/><path d="M53.16 65.905h36.72v11.448h-9.967v23.987h-16.25V77.352H53.159zm33.575 34.902l13.633-34.9h16.273l15.193 34.9h-15.193l-7.883-16.648-7.34 16.648zm41.444-34.902h36.72v11.448h-9.975v23.987h-16.27V77.352H128.18zm33.576 34.902l13.638-34.9h16.258l15.226 34.9h-15.226l-7.874-16.648-7.34 16.648z" fill="#231f20" fill-rule="evenodd"/><path d="M398.41 66.741v13.504h18.06c0 .05-.014-13.505 0-13.504h8.937s.026 33.726 0 33.766h-8.938V85.643c0 .05-18.058 0-18.058 0 .019.064 0 14.874 0 14.864h-8.933s.055-33.766 0-33.766zm-84.816 0v5.741h-13.665v28.025h-8.94V72.482h-13.66s.012-5.729 0-5.741c.012.012 36.265 0 36.265 0m13.484 5.741l-6.214 15.361h12.445zm21.254 28.025h-9.952c.01 0-2.926-7.255-2.926-7.255h-16.747s-2.878 7.265-2.917 7.255c0 .01-9.952 0-9.952 0l15.764-33.766c0 .016 10.96 0 10.96 0zm84.154-33.766h8.943v33.767h-8.943zm-201.369 0s-.01 13.605 0 13.504h18.045c0 .05-.02-13.505 0-13.504h8.944s.032 33.726 0 33.766h-8.944V85.643c0 .05-18.045 0-18.045 0 0 .064-.01 14.874 0 14.864h-8.935s.036-33.766 0-33.766zm34.075 0h8.93v33.767h-8.93zm82.823 24.42a21.858 21.858 0 01-1.201-7.202c0-3.548.619-6.983 2.32-9.847a15.006 15.006 0 017.674-6.404 27.99 27.99 0 019.903-1.803c4.013 0 7.803.876 11.28 2.375 3.224 1.387 5.654 4.29 6.377 7.8.147.693.25 1.419.312 2.144h-9.384c-.028-.91-.17-1.794-.473-2.598-.721-1.865-2.274-3.326-4.19-3.901a13.189 13.189 0 00-3.922-.589c-1.55 0-3.042.263-4.428.76-2.287.805-4.068 2.661-4.873 4.958a21.098 21.098 0 00-1.231 7.105c0 2.066.336 4.055.855 5.928.684 2.458 2.526 4.435 4.879 5.34 1.492.555 3.107.884 4.798.884a13.41 13.41 0 004.133-.64 6.466 6.466 0 003.911-3.508c.485-1.102.73-2.322.73-3.626h9.42a17.766 17.766 0 01-.455 3.205c-.805 3.343-3.142 6.155-6.246 7.452-3.537 1.481-7.414 2.346-11.493 2.346-3.16 0-6.21-.497-9.062-1.394-4.356-1.372-8.134-4.515-9.634-8.785" fill="#231f20"/></svg>