<svg width="25" height="355" viewBox="0 0 25 355" fill="none"
    xmlns="http://www.w3.org/2000/svg">
    <path d="M13 12.0408L13 228.582L13 342.041" class="line" stroke="#EA5400" stroke-opacity="0.5" stroke-width="3" stroke-linecap="round" />
    <g class="checkpoint checkpoint-1">

        <path d="M25 12.0408C25 18.6682 19.6274 24.0408 13 24.0408C6.37258 24.0408 1 18.6682 1 12.0408C1 5.41335 6.37258 0.0407715 13 0.0407715C19.6274 0.0407715 25 5.41335 25 12.0408Z"  />


        <path d="M21 12.0408C21 16.459 17.4183 20.0408 13 20.0408C8.58172 20.0408 5 16.459 5 12.0408C5 7.62249 8.58172 4.04077 13 4.04077C17.4183 4.04077 21 7.62249 21 12.0408Z" fill="#EA5400" />


        <path d="M24.5 12.0408C24.5 18.392 19.3513 23.5408 13 23.5408C6.64873 23.5408 1.5 18.392 1.5 12.0408C1.5 5.6895 6.64873 0.540771 13 0.540771C19.3513 0.540771 24.5 5.6895 24.5 12.0408ZM20.5 12.0408C20.5 16.1829 17.1421 19.5408 13 19.5408C8.85786 19.5408 5.5 16.1829 5.5 12.0408C5.5 7.89864 8.85786 4.54077 13 4.54077C17.1421 4.54077 20.5 7.89864 20.5 12.0408ZM13 20.5408C17.6944 20.5408 21.5 16.7352 21.5 12.0408C21.5 7.34635 17.6944 3.54077 13 3.54077C8.30558 3.54077 4.5 7.34635 4.5 12.0408C4.5 16.7352 8.30558 20.5408 13 20.5408Z" stroke="#EA5400" />

    </g>
    <g class="checkpoint checkpoint-2">

    <path d="M24 122.041C24 128.668 18.6274 134.041 12 134.041C5.37258 134.041 0 128.668 0 122.041C0 115.413 5.37258 110.041 12 110.041C18.6274 110.041 24 115.413 24 122.041Z"  />
    <path d="M20 122.041C20 126.459 16.4183 130.041 12 130.041C7.58172 130.041 4 126.459 4 122.041C4 117.622 7.58172 114.041 12 114.041C16.4183 114.041 20 117.622 20 122.041Z" fill="#EA5400" />
    <path d="M23.5 122.041C23.5 128.392 18.3513 133.541 12 133.541C5.64873 133.541 0.5 128.392 0.5 122.041C0.5 115.689 5.64873 110.541 12 110.541C18.3513 110.541 23.5 115.689 23.5 122.041ZM19.5 122.041C19.5 126.183 16.1421 129.541 12 129.541C7.85786 129.541 4.5 126.183 4.5 122.041C4.5 117.899 7.85786 114.541 12 114.541C16.1421 114.541 19.5 117.899 19.5 122.041ZM12 130.541C16.6944 130.541 20.5 126.735 20.5 122.041C20.5 117.346 16.6944 113.541 12 113.541C7.30558 113.541 3.5 117.346 3.5 122.041C3.5 126.735 7.30558 130.541 12 130.541Z" stroke="#EA5400" />
    
    </g>
    <g class="checkpoint checkpoint-3">
    <path d="M25 232.041C25 238.668 19.6274 244.041 13 244.041C6.37258 244.041 1 238.668 1 232.041C1 225.413 6.37258 220.041 13 220.041C19.6274 220.041 25 225.413 25 232.041Z"  />
    <path d="M21 232.041C21 236.459 17.4183 240.041 13 240.041C8.58172 240.041 5 236.459 5 232.041C5 227.622 8.58172 224.041 13 224.041C17.4183 224.041 21 227.622 21 232.041Z" fill="#EA5400" />
    <path d="M24.5 232.041C24.5 238.392 19.3513 243.541 13 243.541C6.64873 243.541 1.5 238.392 1.5 232.041C1.5 225.689 6.64873 220.541 13 220.541C19.3513 220.541 24.5 225.689 24.5 232.041ZM20.5 232.041C20.5 236.183 17.1421 239.541 13 239.541C8.85786 239.541 5.5 236.183 5.5 232.041C5.5 227.899 8.85786 224.541 13 224.541C17.1421 224.541 20.5 227.899 20.5 232.041ZM13 240.541C17.6944 240.541 21.5 236.735 21.5 232.041C21.5 227.346 17.6944 223.541 13 223.541C8.30558 223.541 4.5 227.346 4.5 232.041C4.5 236.735 8.30558 240.541 13 240.541Z" stroke="#EA5400" />
    </g>
    


    <g class="checkpoint checkpoint-4">
    <path d="M24 342.041C24 348.668 18.6274 354.041 12 354.041C5.37258 354.041 0 348.668 0 342.041C0 335.413 5.37258 330.041 12 330.041C18.6274 330.041 24 335.413 24 342.041Z"  />
    <path d="M20 342.041C20 346.459 16.4183 350.041 12 350.041C7.58172 350.041 4 346.459 4 342.041C4 337.622 7.58172 334.041 12 334.041C16.4183 334.041 20 337.622 20 342.041Z" fill="#EA5400" />
    <path d="M23.5 342.041C23.5 348.392 18.3513 353.541 12 353.541C5.64873 353.541 0.5 348.392 0.5 342.041C0.5 335.689 5.64873 330.541 12 330.541C18.3513 330.541 23.5 335.689 23.5 342.041ZM19.5 342.041C19.5 346.183 16.1421 349.541 12 349.541C7.85786 349.541 4.5 346.183 4.5 342.041C4.5 337.899 7.85786 334.541 12 334.541C16.1421 334.541 19.5 337.899 19.5 342.041ZM12 350.541C16.6944 350.541 20.5 346.735 20.5 342.041C20.5 337.346 16.6944 333.541 12 333.541C7.30558 333.541 3.5 337.346 3.5 342.041C3.5 346.735 7.30558 350.541 12 350.541Z" stroke="#EA5400" />
    </g>
</svg>