<svg width="2209" height="1913" viewBox="0 0 2209 1913" fill="none"
    xmlns="http://www.w3.org/2000/svg">
    <path d="M0 108.332V167.238L501.726 0H325.006L0 108.332Z" fill="#FFC700" />
    <path d="M803.268 0L0 267.749V326.654L979.988 0H803.268Z" fill="#FFC700" />
    <path d="M1281.53 0L0 427.166V486.071L1458.25 0H1281.53Z" fill="#FFC700" />
    <path d="M1759.79 0L0 586.582V645.487L1936.51 0H1759.79Z" fill="#FFC700" />
    <path d="M2209 9.68502L0 745.999V804.904L2209 68.5901V9.68502Z" fill="#FFC700" />
    <path d="M2209 169.102L0 905.416V964.321L2209 228.007V169.102Z" fill="#FFC700" />
    <path d="M2209 328.518L0 1064.83V1123.74L2209 387.423V328.518Z" fill="#FFC700" />
    <path d="M2209 487.935L0 1224.25V1283.15L2209 546.84V487.935Z" fill="#FFC700" />
    <path d="M2209 647.352L0 1383.67V1442.57L2209 706.257V647.352Z" fill="#FFC700" />
    <path d="M2209 806.768L0 1543.08V1601.99L2209 865.673V806.768Z" fill="#FFC700" />
    <path d="M2209 966.185L0 1702.5V1761.4L2209 1025.09V966.185Z" fill="#FFC700" />
    <path d="M2209 1125.6L0 1861.92V1913H23.4629L2209 1184.51V1125.6Z" fill="#FFC700" />
    <path d="M2209 1285.02L325.006 1913H501.725L2209 1343.92V1285.02Z" fill="#FFC700" />
    <path d="M2209 1444.44L803.268 1913H979.988L2209 1503.34V1444.44Z" fill="#FFC700" />
    <path d="M2209 1603.85L1281.53 1913H1458.25L2209 1662.76V1603.85Z" fill="#FFC700" />
    <path d="M2209 1763.27L1759.79 1913H1936.51L2209 1822.17V1763.27Z" fill="#FFC700" />
</svg>